<?xml version="1.0" encoding="iso-8859-1"?>
<!-- Generator: Adobe Illustrator 19.0.0, SVG Export Plug-In . SVG Version: 6.00 Build 0)  -->
<svg version="1.1" id="Capa_1" xmlns="http://www.w3.org/2000/svg" xmlns:xlink="http://www.w3.org/1999/xlink" x="0px" y="0px"
	 viewBox="0 0 512 512" style="enable-background:new 0 0 512 512;" xml:space="preserve">
<g>
	<path style="fill:#F29C1F;" d="M211.862,370.759H70.621c-24.377,0-44.138,19.761-44.138,44.138s19.761,44.138,44.138,44.138
		h370.759c24.377,0,44.138-19.761,44.138-44.138s-19.761-44.138-44.138-44.138H211.862z"/>
	<path style="fill:#F0C419;" d="M300.138,141.241v326.621C300.138,492.239,280.377,512,256,512s-44.138-19.761-44.138-44.138
		V141.241H300.138z"/>
	<path style="fill:#F29C1F;" d="M512,61.793v88.276c0,4.875-3.952,8.828-8.828,8.828H8.828c-4.875,0-8.828-3.952-8.828-8.828V61.793
		H512z"/>
	<path style="fill:#F0C419;" d="M512,97.103V61.043c-0.001-21.44-11.25-41.307-29.634-52.339C472.878,3.01,462.022,0.002,450.957,0
		H61.043C49.978,0.002,39.122,3.01,29.634,8.704C11.25,19.736,0.001,39.603,0,61.043v36.061H512z"/>
	<path style="fill:#D75E72;" d="M70.621,0v35.31c-0.283,4.563,3.164,8.502,7.724,8.828h355.31c4.56-0.325,8.007-4.264,7.724-8.828V0
		H70.621z"/>
	<g>
		<path style="fill:#FB7B76;" d="M300.138,17.655c0,4.875-3.952,8.828-8.828,8.828H123.586c-4.875,0-8.828-3.952-8.828-8.828
			s3.952-8.828,8.828-8.828H291.31C296.186,8.828,300.138,12.78,300.138,17.655z"/>
		<path style="fill:#FB7B76;" d="M397.241,17.655c0,4.875-3.952,8.828-8.828,8.828h-61.793c-4.875,0-8.828-3.952-8.828-8.828
			s3.952-8.828,8.828-8.828h61.793C393.289,8.828,397.241,12.78,397.241,17.655z"/>
	</g>
</g>
<g>
</g>
<g>
</g>
<g>
</g>
<g>
</g>
<g>
</g>
<g>
</g>
<g>
</g>
<g>
</g>
<g>
</g>
<g>
</g>
<g>
</g>
<g>
</g>
<g>
</g>
<g>
</g>
<g>
</g>
</svg>
